<svg width="20" height="20" viewBox="0 0 20 20" fill="none" xmlns="http://www.w3.org/2000/svg">
<path d="M1.66699 1.6665H3.117C4.017 1.6665 4.72533 2.4415 4.65033 3.33317L3.95866 11.6332C3.84199 12.9915 4.91699 14.1582 6.28365 14.1582H15.1587C16.3587 14.1582 17.4087 13.1748 17.5003 11.9832L17.9503 5.73317C18.0503 4.34984 17.0003 3.22483 15.6087 3.22483H4.85033" stroke="#00C4E4" stroke-width="1.25" stroke-miterlimit="10" stroke-linecap="round" stroke-linejoin="round"/>
<path d="M13.5417 18.3333C14.117 18.3333 14.5833 17.867 14.5833 17.2917C14.5833 16.7164 14.117 16.25 13.5417 16.25C12.9664 16.25 12.5 16.7164 12.5 17.2917C12.5 17.867 12.9664 18.3333 13.5417 18.3333Z" stroke="#00C4E4" stroke-width="1.25" stroke-miterlimit="10" stroke-linecap="round" stroke-linejoin="round"/>
<path d="M6.87467 18.3333C7.44997 18.3333 7.91634 17.867 7.91634 17.2917C7.91634 16.7164 7.44997 16.25 6.87467 16.25C6.29938 16.25 5.83301 16.7164 5.83301 17.2917C5.83301 17.867 6.29938 18.3333 6.87467 18.3333Z" stroke="#00C4E4" stroke-width="1.25" stroke-miterlimit="10" stroke-linecap="round" stroke-linejoin="round"/>
<path d="M7.5 6.6665H17.5" stroke="#00C4E4" stroke-width="1.25" stroke-miterlimit="10" stroke-linecap="round" stroke-linejoin="round"/>
</svg>
