<svg width="14" height="14" viewBox="0 0 14 14" fill="none" xmlns="http://www.w3.org/2000/svg">
<path d="M10.8155 2.40292L7.60712 1.20125C7.27462 1.07875 6.73212 1.07875 6.39962 1.20125L3.19129 2.40292C2.57296 2.63625 2.07129 3.35958 2.07129 4.01875V8.74375C2.07129 9.21625 2.38046 9.84042 2.75962 10.1204L5.96796 12.5179C6.53379 12.9438 7.46129 12.9438 8.02712 12.5179L11.2355 10.1204C11.6146 9.83458 11.9238 9.21625 11.9238 8.74375V4.01875C11.9296 3.35958 11.428 2.63625 10.8155 2.40292ZM9.03046 5.66958L6.52212 8.17792C6.43462 8.26542 6.32379 8.30625 6.21296 8.30625C6.10212 8.30625 5.99129 8.26542 5.90379 8.17792L4.97046 7.23292C4.80129 7.06375 4.80129 6.78375 4.97046 6.61458C5.13962 6.44542 5.41962 6.44542 5.58879 6.61458L6.21879 7.24458L8.41796 5.04542C8.58712 4.87625 8.86712 4.87625 9.03629 5.04542C9.20546 5.21458 9.20546 5.50042 9.03046 5.66958Z" fill="#00C4E4"/>
</svg>
