<svg width="13" height="14" viewBox="0 0 13 14" fill="none" xmlns="http://www.w3.org/2000/svg">
<g clip-path="url(#clip0_2033_22963)">
<path fill-rule="evenodd" clip-rule="evenodd" d="M6.37266 0C9.36926 0 11.7958 2.0026 11.7958 4.48758C11.7958 6.97256 9.36926 8.47816 6.37266 8.47816C3.41992 8.41969 1.35885 7.45493 0.189453 5.58389C0.818006 2.04645 2.87908 0.190028 6.37266 0ZM6.16802 2.79195C4.44315 2.96736 3.39069 3.78594 2.99602 5.24769C3.52225 5.71545 4.57471 5.96395 6.16802 6.02242C7.76133 5.99318 8.71147 5.52542 8.7407 4.45834C8.63838 3.25971 7.48359 2.74809 6.16802 2.79195Z" fill="#231F27"/>
<path fill-rule="evenodd" clip-rule="evenodd" d="M-0.0295824 6.76758C0.847469 9.31103 3.30321 10.7289 5.81743 10.7289C7.90773 10.7289 9.2964 9.83726 10.0127 8.46321L12.3515 9.92496C11.5475 11.9276 9.12099 13.3747 6.27057 13.3747C2.73313 13.3747 -0.27808 11.0067 -0.0295824 6.8699C-0.0295824 6.84067 -0.0295824 6.81143 -0.0295824 6.76758Z" fill="#31B454"/>
</g>
<defs>
<clipPath id="clip0_2033_22963">
<rect width="12.3341" height="13.4" fill="white"/>
</clipPath>
</defs>
</svg>
