<svg width="34" height="24" viewBox="0 0 34 24" fill="none" xmlns="http://www.w3.org/2000/svg">
<rect x="0.5" y="0.5" width="33" height="23" rx="3.5" fill="white"/>
<rect x="0.5" y="0.5" width="33" height="23" rx="3.5" stroke="#F5F5F5"/>
<path d="M21.5771 5.03027C25.322 5.03027 28.3584 8.03016 28.3584 11.7305C28.3583 15.4307 25.322 18.4307 21.5771 18.4307C19.8982 18.4306 18.3629 17.8259 17.1787 16.8271C15.9945 17.8258 14.4591 18.4307 12.7803 18.4307C9.03566 18.4304 6.00011 15.4305 6 11.7305C6 8.0303 9.03559 5.0305 12.7803 5.03027C14.459 5.03027 15.9945 5.63435 17.1787 6.63281C18.3629 5.63422 19.8983 5.0303 21.5771 5.03027Z" fill="#ED0006"/>
<path d="M21.5771 5.03027C25.322 5.03035 28.3574 8.03021 28.3574 11.7305C28.3573 15.4306 25.3219 18.4306 21.5771 18.4307C19.8982 18.4307 18.3629 17.8258 17.1787 16.8271C18.6359 15.5983 19.5615 13.7718 19.5615 11.7305C19.5615 9.68897 18.6361 7.86171 17.1787 6.63281C18.3629 5.63427 19.8984 5.03027 21.5771 5.03027Z" fill="#F9A000"/>
<path d="M17.1787 6.63281C18.6363 7.86171 19.5615 9.68883 19.5615 11.7305C19.5615 13.7719 18.636 15.5983 17.1787 16.8271C15.7217 15.5983 14.7969 13.7716 14.7969 11.7305C14.7969 9.68913 15.7215 7.86171 17.1787 6.63281Z" fill="#FF5E00"/>
</svg>
