<svg width="17" height="14" viewBox="0 0 17 14" fill="none" xmlns="http://www.w3.org/2000/svg">
<g clip-path="url(#clip0_2033_22987)">
<path d="M10.0112 7.43714C9.90748 8.2003 9.68033 8.92437 9.33739 9.612C8.98476 10.3196 8.5331 10.9582 7.97153 11.5174C7.9442 11.5447 7.89248 11.6003 7.86368 11.6329C7.83871 11.6558 7.81138 11.6808 7.78405 11.7057C7.48696 11.9779 7.16694 12.2185 6.81461 12.4151C6.57893 12.5468 6.32886 12.6446 6.07584 12.7369C5.59303 12.9126 5.10434 13.0698 4.6039 13.1886C4.22805 13.2779 3.84809 13.344 3.46314 13.3784C3.01147 13.4187 2.56011 13.4142 2.10933 13.3578C1.59742 13.2938 1.09933 13.1748 0.614167 12.9996C0.4834 12.9523 0.355571 12.8968 0.241553 12.8159C0.18954 12.7792 0.13929 12.7384 0.095799 12.6922C-0.0191001 12.5706 -0.0334995 12.4389 0.0464304 12.2917C0.11343 12.1683 0.216869 12.0787 0.327066 11.997C0.560685 11.8239 0.820163 11.6972 1.08493 11.5806C1.24626 11.5094 1.41229 11.4477 1.56862 11.3666C2.05496 11.1148 2.49693 10.7977 2.90245 10.4301C3.22922 10.1339 3.52044 9.80683 3.75288 9.43039C3.96005 9.0948 4.11286 8.73747 4.17134 8.34576C4.19308 8.2 4.20484 8.0516 4.20601 7.90438C4.20925 7.50062 4.20366 7.09685 4.20308 6.69309C4.20219 5.99811 4.20337 5.30313 4.2019 4.60816C4.20014 3.89114 4.19573 3.17441 4.19308 2.4574C4.19103 1.86615 4.19015 1.27491 4.18926 0.68366C4.18868 0.363353 4.41436 0.0824229 4.72732 0.0183615C4.8384 -0.00426571 4.95095 -0.00103325 5.06115 0.0330545C5.28918 0.103287 5.5084 0.19644 5.7238 0.297528C6.46168 0.643401 7.1355 1.08654 7.7432 1.63018C7.75937 1.64458 7.777 1.65751 7.79727 1.67397C7.81961 1.69424 7.8487 1.72304 7.87867 1.75272L7.88396 1.75801C7.88984 1.76389 7.89572 1.76947 7.9013 1.77535C7.90718 1.78123 7.91276 1.78681 7.91864 1.79269C7.93069 1.80444 7.94215 1.8159 7.95302 1.82648C7.96007 1.83353 7.96683 1.84 7.973 1.84617C8.75202 2.60139 9.33357 3.48473 9.69884 4.50765C9.88808 5.03778 10.013 5.58259 10.0497 6.14416C10.0782 6.57555 10.0691 7.00664 10.0106 7.43714H10.0112Z" fill="#FFC906"/>
<path d="M12.7086 5.54423C12.5611 6.04203 12.5153 6.55187 12.5561 7.06965C12.5649 7.18191 12.5779 7.29298 12.5943 7.40259C12.5955 7.40994 12.5967 7.41729 12.5976 7.42463C12.701 8.08699 12.9425 8.7038 13.2846 9.28712C13.5347 9.71321 13.8297 10.1052 14.1815 10.4537C14.3357 10.6068 14.505 10.7397 14.6869 10.8578C15.1447 11.1546 15.6199 11.4194 16.1189 11.6409C16.1671 11.6624 16.2176 11.6794 16.2652 11.7023C16.3707 11.7538 16.4318 11.8214 16.4471 11.8995C16.4471 11.8995 16.4471 11.8998 16.4471 11.9001C16.4612 11.9736 16.4345 12.0559 16.3657 12.142C16.2834 12.2451 16.1785 12.3221 16.0669 12.39C15.7607 12.5763 15.4357 12.7232 15.1021 12.8528C14.6137 13.0426 14.1106 13.1816 13.5946 13.271C13.0845 13.3594 12.5705 13.3994 12.0527 13.3773C11.1324 13.338 10.2581 13.1164 9.43386 12.7035C8.91256 12.4423 8.43445 12.1158 7.99366 11.7347C7.95692 11.7029 7.9199 11.6715 7.88287 11.6403C7.87964 11.6377 7.87494 11.6371 7.86465 11.6333C7.89345 11.6007 7.94517 11.5448 7.9725 11.5178C8.53407 10.9586 8.98573 10.32 9.33836 9.61242C9.681 8.92479 9.90845 8.20072 10.0122 7.43756C10.0707 7.00706 10.0798 6.57597 10.0513 6.14458C10.0142 5.58302 9.88964 5.0382 9.70039 4.50808C9.33513 3.48486 8.75358 2.60181 7.97456 1.84659C7.96838 1.84042 7.96163 1.83395 7.95457 1.8269C7.9437 1.81632 7.93224 1.80486 7.92019 1.79311C7.91461 1.78752 7.90873 1.78165 7.90285 1.77577C7.89698 1.76989 7.8911 1.76431 7.88552 1.75843L7.88023 1.75314C7.85025 1.72346 7.82087 1.69467 7.79883 1.67439C7.79883 1.67439 7.79942 1.67409 7.79971 1.6738C7.95252 1.5686 8.09856 1.46663 8.24638 1.36701C8.58843 1.13633 8.939 0.919757 9.30016 0.719639C9.68952 0.503652 10.105 0.362893 10.5367 0.262687C11.0125 0.152196 11.4947 0.0840206 11.9819 0.0546346C12.383 0.0302443 12.7842 0.0302442 13.1853 0.0613933C13.6196 0.0951871 14.0478 0.161599 14.4662 0.285902C14.7654 0.374941 15.0516 0.493367 15.3219 0.650582C15.6134 0.820433 15.9085 0.984994 16.1797 1.18688C16.2229 1.21891 16.264 1.25358 16.3043 1.28973C16.3043 1.28973 16.3043 1.28973 16.3046 1.29002C16.3399 1.32117 16.3742 1.35349 16.4086 1.38523C16.4136 1.38993 16.4186 1.39463 16.4236 1.39904C16.4486 1.42226 16.4671 1.45458 16.4821 1.48602C16.5088 1.54274 16.5009 1.59034 16.4509 1.62796C16.4486 1.62972 16.4462 1.63149 16.4439 1.63295C16.4433 1.63354 16.4427 1.63384 16.4421 1.63442L16.436 1.63883C16.436 1.63883 16.4333 1.6406 16.4318 1.64148C16.3951 1.66645 16.354 1.68702 16.3128 1.70377C16.2552 1.72728 16.1965 1.74874 16.138 1.77019C16.0848 1.78958 16.0316 1.80956 15.9796 1.83131C15.9255 1.85394 15.8717 1.87745 15.8188 1.90184C15.4242 2.08344 15.058 2.31353 14.7157 2.5833C14.5696 2.69849 14.4298 2.81956 14.2961 2.94739C14.2893 2.95385 14.2825 2.96032 14.2758 2.96678C14.2664 2.97589 14.2567 2.9853 14.2473 2.99441C14.2358 3.00528 14.2247 3.01645 14.2135 3.02761C14.18 3.06082 14.1471 3.09432 14.1145 3.12841C14.1045 3.1384 14.0951 3.14868 14.0854 3.15897C14.0774 3.16749 14.0695 3.17572 14.0616 3.18424C14.0539 3.19217 14.0466 3.2004 14.0389 3.20863C13.9575 3.29708 13.8788 3.38818 13.8027 3.48221C13.5614 3.78048 13.3501 4.0952 13.1706 4.42668C13.1685 4.4302 13.1668 4.43373 13.1647 4.43726C13.0063 4.73112 12.8732 5.0382 12.7662 5.35939C12.746 5.42022 12.7269 5.48163 12.7083 5.54334L12.7086 5.54423Z" fill="#F21E25"/>
</g>
<defs>
<clipPath id="clip0_2033_22987">
<rect width="16.4855" height="13.4" fill="white"/>
</clipPath>
</defs>
</svg>
