<svg width="14" height="14" viewBox="0 0 14 14" fill="none" xmlns="http://www.w3.org/2000/svg">
<path d="M10.8155 2.40341L7.60712 1.20174C7.27462 1.07924 6.73212 1.07924 6.39962 1.20174L3.19129 2.40341C2.57296 2.63674 2.07129 3.36007 2.07129 4.01924V8.74424C2.07129 9.21674 2.38046 9.84091 2.75962 10.1209L5.96796 12.5184C6.53379 12.9442 7.46129 12.9442 8.02712 12.5184L11.2355 10.1209C11.6146 9.83507 11.9238 9.21674 11.9238 8.74424V4.01924C11.9296 3.36007 11.428 2.63674 10.8155 2.40341ZM9.03046 5.67007L6.52212 8.17841C6.43462 8.26591 6.32379 8.30674 6.21296 8.30674C6.10212 8.30674 5.99129 8.26591 5.90379 8.17841L4.97046 7.23341C4.80129 7.06424 4.80129 6.78424 4.97046 6.61507C5.13962 6.44591 5.41962 6.44591 5.58879 6.61507L6.21879 7.24507L8.41796 5.0459C8.58712 4.87674 8.86712 4.87674 9.03629 5.0459C9.20546 5.21507 9.20546 5.50091 9.03046 5.67007Z" fill="#00C4E4"/>
</svg>
